<svg width="78" height="78" viewBox="0 0 78 78" fill="none" xmlns="http://www.w3.org/2000/svg">
<circle cx="39" cy="39" r="39" fill="url(#paint0_linear_16_311)"/>
<g filter="url(#filter0_d_16_311)">
<circle cx="39.0005" cy="38.9999" r="21.6667" fill="white"/>
</g>
<mask id="mask0_16_311" style="mask-type:alpha" maskUnits="userSpaceOnUse" x="27" y="27" width="24" height="24">
<rect x="27.4154" y="27.4155" width="23.1683" height="23.1683" fill="#C4C4C4"/>
</mask>
<g mask="url(#mask0_16_311)">
<mask id="mask1_16_311" style="mask-type:alpha" maskUnits="userSpaceOnUse" x="27" y="27" width="24" height="24">
<rect x="27.4153" y="27.4155" width="23.1683" height="23.1683" fill="#C4C4C4"/>
</mask>
<g mask="url(#mask1_16_311)">
<path fill-rule="evenodd" clip-rule="evenodd" d="M29.5608 30.4187C32.1671 27.8123 36.3928 27.8122 38.9993 30.4184C41.6058 27.8122 45.8316 27.8124 48.4379 30.4187C50.7365 32.7173 51.008 36.2753 49.2526 38.8714H41.8315C41.6705 38.8714 41.5264 38.9712 41.4699 39.122L40.3416 42.1307L38.0847 34.0057C38.0404 33.8461 37.8992 33.7325 37.7338 33.7235C37.5684 33.7144 37.4156 33.8118 37.3541 33.9656L35.3918 38.8714H28.7461C26.9907 36.2753 27.2622 32.7173 29.5608 30.4187ZM29.3559 39.6437C29.4223 39.7161 29.4905 39.7873 29.5606 39.8575L29.5604 39.8576L38.2387 48.5359C38.6588 48.956 39.3399 48.956 39.76 48.5359L48.4382 39.8576L48.4381 39.8575C48.5082 39.7873 48.5764 39.7161 48.6427 39.6437H42.099L40.6485 43.5119C40.5897 43.6685 40.437 43.7695 40.2699 43.7621C40.1029 43.7548 39.9596 43.6408 39.9148 43.4797L37.6466 35.3139L36.0118 39.4009C35.9531 39.5475 35.8111 39.6437 35.6532 39.6437H29.3559Z" fill="#ED4C4C"/>
</g>
</g>
<defs>
<filter id="filter0_d_16_311" x="13.0005" y="13.8666" width="52" height="51.9999" filterUnits="userSpaceOnUse" color-interpolation-filters="sRGB">
<feFlood flood-opacity="0" result="BackgroundImageFix"/>
<feColorMatrix in="SourceAlpha" type="matrix" values="0 0 0 0 0 0 0 0 0 0 0 0 0 0 0 0 0 0 127 0" result="hardAlpha"/>
<feOffset dy="0.866667"/>
<feGaussianBlur stdDeviation="2.16667"/>
<feColorMatrix type="matrix" values="0 0 0 0 0.667798 0 0 0 0 0.732003 0 0 0 0 0.899563 0 0 0 1 0"/>
<feBlend mode="normal" in2="BackgroundImageFix" result="effect1_dropShadow_16_311"/>
<feBlend mode="normal" in="SourceGraphic" in2="effect1_dropShadow_16_311" result="shape"/>
</filter>
<linearGradient id="paint0_linear_16_311" x1="-12.6977" y1="12.2442" x2="103.395" y2="57.593" gradientUnits="userSpaceOnUse">
<stop stop-color="#D4EFFF"/>
<stop offset="1" stop-color="#D4E0FF" stop-opacity="0"/>
</linearGradient>
</defs>
</svg>
